<svg width="64" height="52" viewBox="0 0 64 52" fill="none" xmlns="http://www.w3.org/2000/svg">
<path d="M58.5438 25.9236C64.3808 29.5253 64.3682 41.9549 55.4407 43.5849V48.1268C55.4407 49.2973 54.5011 50.2461 53.3432 50.2461H15.6917C14.5328 50.2461 13.5943 49.2973 13.5943 48.1268V46.521M34.4502 10.7944L26.6891 30.2008M18.4445 23.9737L13.0754 25.3168M45.5813 7.55991L44.4967 3.29774C44.2165 2.19823 43.109 1.53683 42.0209 1.81939L6.68336 11.0074C5.59558 11.2894 4.94161 12.4094 5.22122 13.5084L6.30411 17.761C-2.33075 21.6972 1.28928 36.2176 10.8075 35.4488L11.8896 39.7006C12.17 40.7999 13.2773 41.4613 14.3643 41.1781L49.703 31.9909C50.7902 31.7083 51.4446 30.5885 51.165 29.49L50.0797 25.2268C58.661 21.246 54.9913 6.86423 45.5813 7.55991ZM37.729 27.6892C39.5388 27.2366 40.565 25.0684 40.0207 22.8469C39.4765 20.6253 37.568 19.1915 35.7581 19.6441C33.9483 20.0969 32.9224 22.2649 33.4666 24.4865C34.0108 26.708 35.9192 28.142 37.729 27.6892ZM25.6701 21.257C27.4799 20.8044 28.5059 18.6365 27.9616 16.4148C27.4174 14.1933 25.5091 12.7593 23.6992 13.2121C21.8892 13.6648 20.8633 15.8327 21.4075 18.0544C21.9517 20.2759 23.8601 21.7098 25.6701 21.257Z" stroke="#E7F5D1" stroke-width="2.44321"/>
</svg>
