<svg width="45" height="61" viewBox="0 0 45 61" fill="none" xmlns="http://www.w3.org/2000/svg">
<path d="M19.251 45.79L14.7801 58.0739L10.1987 52.4776L3.09204 53.8198L7.79479 40.8987" stroke="#E7F5D1" stroke-width="2.23694"/>
<path d="M25.8208 45.79L30.2917 58.0739L34.8731 52.4776L41.9797 53.8198L37.277 40.8987" stroke="#E7F5D1" stroke-width="2.23694"/>
<path fillRule="evenodd" clipRule="evenodd" d="M39.5573 22.1014L42.6784 16.6954L37.2725 13.5741V7.33201H31.0305L27.9093 1.92603L22.5034 5.04759L17.0975 1.92603L13.9765 7.33201H7.73425V13.5741L2.32837 16.6954L5.44962 22.1014L2.32837 27.5074L7.73425 30.6285V36.8709H13.9765L17.0975 42.2769L22.5034 39.1558L27.9093 42.2769L31.0305 36.8709H37.2725V30.6285L42.6784 27.5074L39.5573 22.1014Z" stroke="#E7F5D1" stroke-width="2.23694"/>
</svg>
