<svg width="55" height="34" viewBox="0 0 55 34" fill="none" xmlns="http://www.w3.org/2000/svg">
<path d="M54.3536 23.8494L53.7221 18.5579C53.6542 17.9891 53.1427 17.5798 52.5729 17.6379C50.485 17.8516 48.5836 16.3294 48.335 14.2453C48.0862 12.1612 49.5757 10.2345 51.6554 9.95041C52.2229 9.87283 52.6236 9.35465 52.5557 8.78587L51.9241 3.4943C51.8148 2.58012 51.3564 1.76317 50.6328 1.19386C49.9092 0.624658 49.0073 0.371338 48.0931 0.480309L11.2195 4.88161C10.3146 4.98965 9.50526 5.44055 8.93679 6.15148H4.07514C2.17457 6.15168 0.628418 7.69783 0.628418 9.5983V14.9274C0.628418 15.5003 1.08771 15.9674 1.66038 15.9771C3.75905 16.0127 5.46644 17.7493 5.46644 19.8482C5.46644 21.9471 3.75905 23.6837 1.66038 23.7193C1.08771 23.7289 0.628418 24.1961 0.628418 24.7688V30.0981C0.628418 31.9984 2.17457 33.5446 4.07514 33.5446H33.6516H41.2106C43.1111 33.5446 44.6573 31.9984 44.6573 30.0979V28.478L51.3398 27.6802C52.254 27.5712 53.071 27.1127 53.6403 26.3891C54.2094 25.6653 54.4627 24.7634 54.3536 23.8494ZM42.5577 26.614V28.7286V30.0979C42.5577 30.8405 41.9535 31.445 41.2106 31.445H34.7013V29.6663V29.4766C34.7013 28.897 34.2314 28.4269 33.6516 28.4269C33.0717 28.4269 32.6016 28.897 32.6016 29.4766V29.9169V31.445H19.8002H12.0309H4.07514C3.33241 31.445 2.72803 30.8405 2.72803 30.0979V25.7121C3.90749 25.4863 4.99077 24.9094 5.85006 24.0369C6.95664 22.9131 7.56605 21.4254 7.56605 19.8481C7.56605 18.2708 6.95664 16.7832 5.85006 15.6594C4.99068 14.7867 3.90749 14.2099 2.72803 13.9841V9.5983C2.72803 8.85556 3.33229 8.25119 4.07514 8.25119H8.18198H10.2833H32.6019V21.0348C32.6019 21.6145 33.0717 22.0846 33.6516 22.0846C34.2314 22.0846 34.7015 21.6145 34.7015 21.0348V8.2513H41.2106C41.9535 8.2513 42.5577 8.85556 42.5577 9.59841V13.9842C41.3784 14.21 40.2951 14.7868 39.4357 15.6595C38.3289 16.7833 37.7198 18.2709 37.7198 19.8482C37.7198 21.4255 38.3292 22.9131 39.4357 24.0369C40.2951 24.9097 41.3784 25.4863 42.5577 25.7123V26.614ZM51.99 25.0908C51.7676 25.3737 51.4482 25.5529 51.091 25.5956L44.6573 26.3636V24.7688C44.6573 24.1959 44.198 23.7289 43.6253 23.7191C41.5266 23.6835 39.8192 21.9469 39.8192 19.848C39.8192 17.749 41.5266 16.0125 43.6253 15.9769C44.198 15.9672 44.6573 15.5001 44.6573 14.9272V9.5981C44.6573 7.69752 43.1111 6.15137 41.2106 6.15137H33.6516H18.2962L48.3419 2.56523C48.6991 2.5225 49.0519 2.6216 49.3345 2.84406C49.6174 3.06652 49.7965 3.38586 49.8393 3.74312L50.3591 8.09802C49.2147 8.46209 48.2073 9.16317 47.4575 10.1315C46.492 11.3786 46.0631 12.9279 46.2501 14.4941C46.4371 16.0603 47.2185 17.4652 48.4505 18.45C49.4071 19.2148 50.551 19.6589 51.749 19.7434L52.2688 24.0982C52.3116 24.4557 52.2126 24.8082 51.99 25.0908Z" fill="#E7F5D1"/>
</svg>
